<svg id="Capa_1" data-name="Capa 1" xmlns="http://www.w3.org/2000/svg" xmlns:xlink="http://www.w3.org/1999/xlink" viewBox="0 0 1679.41 294.01"><defs><style>.cls-1{fill:#fff;}.cls-2,.cls-4{fill:#c4007a;}.cls-3,.cls-7{fill:#5e2f77;}.cls-4{font-size:94.34px;}.cls-4,.cls-7{font-family:Montserrat-Bold, Montserrat;font-weight:700;}.cls-5{letter-spacing:-0.01em;}.cls-6{letter-spacing:0.02em;}.cls-7{font-size:100.13px;}.cls-8{letter-spacing:0em;}.cls-9{letter-spacing:-0.02em;}.cls-10{letter-spacing:0em;}.cls-11{letter-spacing:-0.01em;}.cls-12{letter-spacing:-0.01em;}.cls-13{fill:url(#linear-gradient);}.cls-14{fill:url(#linear-gradient-2);}.cls-15{fill:url(#linear-gradient-3);}.cls-16{fill:url(#linear-gradient-4);}.cls-17{fill:url(#Degradado_sin_nombre_4);}</style><linearGradient id="linear-gradient" x1="100.22" y1="384.5" x2="576.79" y2="-92.07" gradientUnits="userSpaceOnUse"><stop offset="0.21" stop-color="#5a3c80"/><stop offset="0.59" stop-color="#c81586"/></linearGradient><linearGradient id="linear-gradient-2" x1="130.48" y1="406.51" x2="590.01" y2="-53.02" xlink:href="#linear-gradient"/><linearGradient id="linear-gradient-3" x1="146.12" y1="435.42" x2="611.9" y2="-30.35" xlink:href="#linear-gradient"/><linearGradient id="linear-gradient-4" x1="35.5" y1="294.24" x2="497.51" y2="-167.78" xlink:href="#linear-gradient"/><linearGradient id="Degradado_sin_nombre_4" x1="495.87" y1="80.41" x2="516.38" y2="80.41" gradientUnits="userSpaceOnUse"><stop offset="0.45" stop-color="#c81586"/><stop offset="0.59" stop-color="#c81586"/></linearGradient></defs><rect class="cls-1" x="1.4" y="1.29" width="1674.64" height="291.44" rx="72.04"/><path class="cls-2" d="M1603.56,46.56c1.44,3.28,2.78,6.34,4.11,9.4a1.06,1.06,0,0,1-.29,1.39q-6.64,6.33-13.18,12.77c-2.15,2.13-4.23,4.35-6.27,6.6-3.7,4.06-7.45,8.09-11,12.29-5.33,6.31-10.63,12.64-15.69,19.16s-10.08,13.48-15,20.32c-3.34,4.68-6.55,9.47-9.65,14.31-3.75,5.86-7.49,11.74-10.94,17.78-3.8,6.64-7.36,13.42-10.85,20.23-2.07,4-3.79,8.25-5.75,12.58a7.37,7.37,0,0,1-1.14-.82q-8.19-8.23-16.33-16.48-9.52-9.65-19-19.32-9.9-10.08-19.81-20.15-6.22-6.31-12.45-12.62c-.82-.84-1.56-1.76-2.42-2.56-.64-.59-.56-1,.08-1.48q3.75-3,7.49-6c3.1-2.5,6.19-5,9.26-7.53.67-.56,1.17-.8,2-.15q10.35,8.2,20.78,16.34,8.79,6.89,17.61,13.76c2,1.56,2,1.48,3.64-.44,3.44-3.94,6.87-7.89,10.47-11.69,5.52-5.85,11.15-11.6,16.79-17.34,2.57-2.61,5.24-5.13,8-7.6,4.82-4.38,9.63-8.77,14.57-13s10.14-8.53,15.37-12.58c6.59-5.09,13.25-10.11,20-14.9,5.93-4.17,12.11-8,18.19-11.93A5,5,0,0,1,1603.56,46.56Z"/><path class="cls-3" d="M1548.29,68.39c-1,.91-2.09,1.83-3.15,2.72-3,2.49-5.93,4.94-8.87,7.44a2.79,2.79,0,0,1-2.07.76c-3.29-.07-6.58,0-9.87,0q-40.32,0-80.62,0a12.55,12.55,0,0,0-6.7,1.55,10.57,10.57,0,0,0-5.45,9.45q-.06,47.6,0,95.19c0,4.15,0,8.3,0,12.46a10.86,10.86,0,0,0,8.23,11,8.2,8.2,0,0,0,1.85.21q52.23,0,104.47,0a10,10,0,0,0,9.19-6.72,13.19,13.19,0,0,0,.68-4.09c0-19.62,0-39.25,0-58.87a3.88,3.88,0,0,1,.68-2.14c3.14-4.36,6.36-8.67,9.56-13,.31-.43.61-.87,1.06-1.51a4.65,4.65,0,0,1,.22.94q0,37,0,74a23.66,23.66,0,0,1-.65,6.81,22.62,22.62,0,0,1-5,9,22,22,0,0,1-11.24,6.72,14.89,14.89,0,0,1-3.45.44q-21.45,0-42.9,0h-60.75c-2.37,0-4.72.21-7.07-.56a25,25,0,0,1-7.55-3.73,22.07,22.07,0,0,1-7.6-10.28,34.49,34.49,0,0,1-1.16-5.77,8.57,8.57,0,0,1,0-1.52q0-54.53,0-109.06c0-7.8,3.54-13.67,9.75-18.08a17.45,17.45,0,0,1,8.28-3.36c1.49-.15,3-.48,4.48-.48q52.06,0,104.12,0a11.59,11.59,0,0,1,1.43.16Z"/><text class="cls-4" transform="translate(577.82 219.99) scale(1.01 1)">POR CIRU<tspan class="cls-5" x="488.48" y="0">J</tspan><tspan x="538.1" y="0">ANO</tspan><tspan class="cls-6" x="766.21" y="0">S</tspan><tspan x="828.28" y="0">.</tspan></text><text class="cls-7" transform="translate(573.5 138.13)">R<tspan class="cls-8" x="73.59" y="0">E</tspan><tspan class="cls-9" x="140.58" y="0">C</tspan><tspan class="cls-10" x="212.47" y="0">OMEN</tspan><tspan class="cls-11" x="540.69" y="0">D</tspan><tspan x="622.4" y="0">A</tspan><tspan class="cls-12" x="699.09" y="0">D</tspan><tspan x="780.8" y="0">A</tspan></text><path class="cls-13" d="M309.4,154.94l29.4,31.46s-8.6,8.6-15.15,12.43c-10.48,6.13-24.81,8-34.67.07-7.5-6.08-9.68-15.83-7.5-25,2.39-10,9.23-17.34,17.14-23.48,5.13-4,10.73-7.32,15.92-11.22,12.11-9.08,26.72-21.74,27.32-38.11a31,31,0,0,0-5-18,32,32,0,0,0-15.07-12c-12.17-4.86-27.36-2.21-37,6.77-11.56,10.79-11.87,28.46-4.58,41.73A88.24,88.24,0,0,0,292.6,137L294,138.5l-1.49,1.06c-10.91,7.41-21,16.42-25.86,29-5.58,14.56-1,31.5,10.7,41.67a38.75,38.75,0,0,0,25.27,9.42,51.11,51.11,0,0,0,24.6-6.07,89.07,89.07,0,0,0,20.63-15.39l1.13-1.12,16.38,17.51c10,9.36,22.7,3.8,23.54,3.26l-56.2-60C323.31,149,311.43,153.91,309.4,154.94Zm-18-46a26.59,26.59,0,0,1-2-12.23,19,19,0,0,1,5-11.51c7.21-7.7,20.51-7.18,27.92-.07,5,4.83,6.44,12,5.09,18.68-1.48,7.33-6.07,13.23-11.44,18.22-.4.38-9.53,7.77-9.53,7.77l-1.44-1.61C299.64,122.56,294.42,116.41,291.35,109Z"/><circle class="cls-14" cx="371.83" cy="165.16" r="11.45"/><path class="cls-15" d="M442.63,70.37H404.74a7.93,7.93,0,0,0-7.9,8V218.81h44c39.94,0,74-31.19,75.51-71.36C517.91,105.23,484.24,70.37,442.63,70.37Zm-1.2,133.26H411.78V84.53H443c32.57,0,58.45,26.39,59,59C502.55,177.16,474.81,203.63,441.43,203.63Z"/><path class="cls-16" d="M232,70.37l-54.6,111.47L122.82,70.37h-9.31L98,218.73h13.79l12.54-110.44,53.11,104.33L230.57,108,242.46,213a6.43,6.43,0,0,0,6.39,5.71h8L241.34,70.37Z"/><path class="cls-17" d="M516.38,80.35a10.26,10.26,0,1,1-10.23-10,10,10,0,0,1,10.23,10m-17.95,0a7.73,7.73,0,0,0,7.79,8,7.64,7.64,0,0,0,7.6-7.91,7.7,7.7,0,1,0-15.39-.06m6.15,5.23h-2.32v-10a20.45,20.45,0,0,1,3.83-.3,6.18,6.18,0,0,1,3.47.73,2.76,2.76,0,0,1,1,2.19,2.57,2.57,0,0,1-2.07,2.31v.12a2.94,2.94,0,0,1,1.82,2.44,7.89,7.89,0,0,0,.73,2.49h-2.49a8.33,8.33,0,0,1-.79-2.43c-.19-1.1-.79-1.59-2.07-1.59h-1.09Zm.05-5.66h1.1c1.28,0,2.31-.42,2.31-1.46s-.67-1.52-2.13-1.52a5.67,5.67,0,0,0-1.28.12Z"/></svg>